<mxfile host="app.diagrams.net" modified="2024-06-22T14:22:20.936Z" agent="Mozilla/5.0 (Windows NT 10.0; Win64; x64) AppleWebKit/537.36 (KHTML, like Gecko) Chrome/126.0.0.0 Safari/537.36" etag="jT8IbRcgA4Dm00vADdJj" version="24.5.4" type="device">
  <diagram name="Sayfa -1" id="fZyrNpU7rvEKVg4KAbG1">
    <mxGraphModel dx="1803" dy="4102" grid="1" gridSize="10" guides="1" tooltips="1" connect="1" arrows="1" fold="1" page="1" pageScale="1" pageWidth="1169" pageHeight="1654" math="0" shadow="0">
      <root>
        <mxCell id="0" />
        <mxCell id="1" parent="0" />
        <mxCell id="l4M0wtJuBkXQJmv7v71e-4" value="" style="edgeStyle=orthogonalEdgeStyle;rounded=0;hachureGap=4;orthogonalLoop=1;jettySize=auto;html=1;fontFamily=Times New Roman;sketch=1;curveFitting=1;jiggle=2;fontColor=#000766;fontSize=12;" edge="1" parent="1" source="l4M0wtJuBkXQJmv7v71e-1" target="l4M0wtJuBkXQJmv7v71e-3">
          <mxGeometry relative="1" as="geometry" />
        </mxCell>
        <mxCell id="l4M0wtJuBkXQJmv7v71e-1" value="&lt;h4 style=&quot;font-size: 12px;&quot;&gt;&lt;font style=&quot;font-size: 12px;&quot;&gt;START&lt;/font&gt;&lt;/h4&gt;" style="ellipse;whiteSpace=wrap;html=1;gradientColor=none;fillColor=default;fillStyle=auto;rounded=1;sketch=1;curveFitting=1;jiggle=2;fontFamily=Times New Roman;fontColor=#000766;fontSize=12;" vertex="1" parent="1">
          <mxGeometry x="470" y="-3180" width="70" height="60" as="geometry" />
        </mxCell>
        <mxCell id="l4M0wtJuBkXQJmv7v71e-6" value="" style="edgeStyle=orthogonalEdgeStyle;rounded=0;hachureGap=4;orthogonalLoop=1;jettySize=auto;html=1;fontFamily=Times New Roman;sketch=1;curveFitting=1;jiggle=2;fontColor=#000766;fontSize=12;" edge="1" parent="1" source="l4M0wtJuBkXQJmv7v71e-3" target="l4M0wtJuBkXQJmv7v71e-5">
          <mxGeometry relative="1" as="geometry" />
        </mxCell>
        <mxCell id="l4M0wtJuBkXQJmv7v71e-3" value="Read coffee menu from JSON file" style="rounded=0;whiteSpace=wrap;html=1;hachureGap=4;fontFamily=Times New Roman;sketch=1;curveFitting=1;jiggle=2;fontColor=#000766;fontSize=12;" vertex="1" parent="1">
          <mxGeometry x="445" y="-3090" width="120" height="60" as="geometry" />
        </mxCell>
        <mxCell id="l4M0wtJuBkXQJmv7v71e-8" value="" style="edgeStyle=orthogonalEdgeStyle;rounded=0;hachureGap=4;orthogonalLoop=1;jettySize=auto;html=1;fontFamily=Times New Roman;sketch=1;curveFitting=1;jiggle=2;fontColor=#000766;fontSize=12;" edge="1" parent="1" source="l4M0wtJuBkXQJmv7v71e-5" target="l4M0wtJuBkXQJmv7v71e-7">
          <mxGeometry relative="1" as="geometry" />
        </mxCell>
        <mxCell id="l4M0wtJuBkXQJmv7v71e-5" value="Initilize Coffee Machine" style="rounded=0;whiteSpace=wrap;html=1;hachureGap=4;fontFamily=Times New Roman;sketch=1;curveFitting=1;jiggle=2;fontColor=#000766;fontSize=12;" vertex="1" parent="1">
          <mxGeometry x="445" y="-2990" width="120" height="60" as="geometry" />
        </mxCell>
        <mxCell id="l4M0wtJuBkXQJmv7v71e-11" value="" style="edgeStyle=orthogonalEdgeStyle;rounded=0;orthogonalLoop=1;jettySize=auto;html=1;entryX=1;entryY=0.5;entryDx=0;entryDy=0;fontFamily=Times New Roman;fontColor=#000766;fontSize=12;exitX=1;exitY=0.5;exitDx=0;exitDy=0;" edge="1" parent="1" source="l4M0wtJuBkXQJmv7v71e-7" target="l4M0wtJuBkXQJmv7v71e-10">
          <mxGeometry relative="1" as="geometry">
            <mxPoint x="600" y="-2734" as="sourcePoint" />
            <mxPoint x="1102.6" y="-2270.05" as="targetPoint" />
            <Array as="points">
              <mxPoint x="1111" y="-2850" />
              <mxPoint x="1111" y="-1900" />
            </Array>
          </mxGeometry>
        </mxCell>
        <mxCell id="l4M0wtJuBkXQJmv7v71e-13" value="" style="edgeStyle=orthogonalEdgeStyle;rounded=0;orthogonalLoop=1;jettySize=auto;html=1;fontFamily=Times New Roman;fontColor=#000766;fontSize=12;" edge="1" parent="1" source="l4M0wtJuBkXQJmv7v71e-7" target="l4M0wtJuBkXQJmv7v71e-12">
          <mxGeometry relative="1" as="geometry" />
        </mxCell>
        <mxCell id="l4M0wtJuBkXQJmv7v71e-7" value="If the Machine On?" style="rhombus;whiteSpace=wrap;html=1;hachureGap=4;fontFamily=Times New Roman;sketch=1;curveFitting=1;jiggle=2;fontColor=#000766;fontSize=12;" vertex="1" parent="1">
          <mxGeometry x="465" y="-2890" width="80" height="80" as="geometry" />
        </mxCell>
        <mxCell id="l4M0wtJuBkXQJmv7v71e-10" value="&lt;h4 style=&quot;font-size: 12px;&quot;&gt;&lt;font style=&quot;font-size: 12px;&quot;&gt;END&lt;/font&gt;&lt;/h4&gt;" style="ellipse;whiteSpace=wrap;html=1;fontFamily=Times New Roman;hachureGap=4;sketch=1;curveFitting=1;jiggle=2;fontColor=#000766;fontSize=12;" vertex="1" parent="1">
          <mxGeometry x="1012.6000000000001" y="-1930" width="80" height="60" as="geometry" />
        </mxCell>
        <mxCell id="l4M0wtJuBkXQJmv7v71e-15" value="" style="edgeStyle=orthogonalEdgeStyle;rounded=0;orthogonalLoop=1;jettySize=auto;html=1;fontFamily=Times New Roman;fontColor=#000766;fontSize=12;" edge="1" parent="1" source="l4M0wtJuBkXQJmv7v71e-12" target="l4M0wtJuBkXQJmv7v71e-14">
          <mxGeometry relative="1" as="geometry" />
        </mxCell>
        <mxCell id="l4M0wtJuBkXQJmv7v71e-12" value="Ask the user for coffee type or exit from program" style="shape=parallelogram;perimeter=parallelogramPerimeter;whiteSpace=wrap;html=1;fixedSize=1;fontFamily=Times New Roman;hachureGap=4;sketch=1;curveFitting=1;jiggle=2;fontColor=#000766;fontSize=12;" vertex="1" parent="1">
          <mxGeometry x="431.25" y="-2750" width="147.5" height="60" as="geometry" />
        </mxCell>
        <mxCell id="l4M0wtJuBkXQJmv7v71e-17" value="" style="edgeStyle=orthogonalEdgeStyle;rounded=0;orthogonalLoop=1;jettySize=auto;html=1;fontFamily=Times New Roman;fontColor=#000766;fontSize=12;" edge="1" parent="1" source="l4M0wtJuBkXQJmv7v71e-14" target="l4M0wtJuBkXQJmv7v71e-16">
          <mxGeometry relative="1" as="geometry" />
        </mxCell>
        <mxCell id="l4M0wtJuBkXQJmv7v71e-39" value="" style="edgeStyle=orthogonalEdgeStyle;rounded=0;orthogonalLoop=1;jettySize=auto;html=1;fontFamily=Times New Roman;fontColor=#000766;fontSize=12;" edge="1" parent="1" source="l4M0wtJuBkXQJmv7v71e-14" target="l4M0wtJuBkXQJmv7v71e-38">
          <mxGeometry relative="1" as="geometry" />
        </mxCell>
        <mxCell id="l4M0wtJuBkXQJmv7v71e-14" value="If the request inside of the menu" style="rhombus;whiteSpace=wrap;html=1;fontFamily=Times New Roman;hachureGap=4;sketch=1;curveFitting=1;jiggle=2;fontColor=#000766;fontSize=12;" vertex="1" parent="1">
          <mxGeometry x="452.5" y="-2640" width="105" height="90" as="geometry" />
        </mxCell>
        <mxCell id="l4M0wtJuBkXQJmv7v71e-20" value="" style="edgeStyle=orthogonalEdgeStyle;rounded=0;orthogonalLoop=1;jettySize=auto;html=1;fontFamily=Times New Roman;fontColor=#000766;fontSize=12;" edge="1" parent="1" source="l4M0wtJuBkXQJmv7v71e-16" target="l4M0wtJuBkXQJmv7v71e-19">
          <mxGeometry relative="1" as="geometry" />
        </mxCell>
        <mxCell id="l4M0wtJuBkXQJmv7v71e-29" value="" style="edgeStyle=orthogonalEdgeStyle;rounded=0;orthogonalLoop=1;jettySize=auto;html=1;fontFamily=Times New Roman;fontColor=#000766;fontSize=12;" edge="1" parent="1" source="l4M0wtJuBkXQJmv7v71e-16" target="l4M0wtJuBkXQJmv7v71e-28">
          <mxGeometry relative="1" as="geometry" />
        </mxCell>
        <mxCell id="l4M0wtJuBkXQJmv7v71e-16" value="If the request equal to &#39;report&#39;" style="rhombus;whiteSpace=wrap;html=1;fontFamily=Times New Roman;hachureGap=4;sketch=1;curveFitting=1;jiggle=2;fontColor=#000766;fontSize=12;" vertex="1" parent="1">
          <mxGeometry x="565" y="-2520" width="105" height="90" as="geometry" />
        </mxCell>
        <mxCell id="l4M0wtJuBkXQJmv7v71e-18" value="False" style="text;html=1;align=center;verticalAlign=middle;whiteSpace=wrap;rounded=0;fontFamily=Times New Roman;fontColor=#000766;fontSize=12;" vertex="1" parent="1">
          <mxGeometry x="610" y="-2590" width="60" height="30" as="geometry" />
        </mxCell>
        <mxCell id="l4M0wtJuBkXQJmv7v71e-27" value="" style="edgeStyle=orthogonalEdgeStyle;rounded=0;orthogonalLoop=1;jettySize=auto;html=1;entryX=1;entryY=0.5;entryDx=0;entryDy=0;fontFamily=Times New Roman;fontColor=#000766;fontSize=12;" edge="1" parent="1" source="l4M0wtJuBkXQJmv7v71e-19" target="l4M0wtJuBkXQJmv7v71e-12">
          <mxGeometry relative="1" as="geometry">
            <mxPoint x="641.25" y="-2730" as="targetPoint" />
            <Array as="points">
              <mxPoint x="731.25" y="-2375" />
              <mxPoint x="731.25" y="-2720" />
            </Array>
          </mxGeometry>
        </mxCell>
        <mxCell id="l4M0wtJuBkXQJmv7v71e-19" value="If the request equal to &#39;exist&#39;" style="rhombus;whiteSpace=wrap;html=1;fontFamily=Times New Roman;hachureGap=4;sketch=1;curveFitting=1;jiggle=2;fontColor=#000766;fontSize=12;" vertex="1" parent="1">
          <mxGeometry x="741.25" y="-2420" width="105" height="90" as="geometry" />
        </mxCell>
        <mxCell id="l4M0wtJuBkXQJmv7v71e-21" value="False" style="text;html=1;align=center;verticalAlign=middle;whiteSpace=wrap;rounded=0;fontFamily=Times New Roman;fontColor=#000766;fontSize=12;" vertex="1" parent="1">
          <mxGeometry x="786.25" y="-2470" width="60" height="30" as="geometry" />
        </mxCell>
        <mxCell id="l4M0wtJuBkXQJmv7v71e-22" value="" style="endArrow=classic;html=1;rounded=0;exitX=1;exitY=0.5;exitDx=0;exitDy=0;entryX=0.5;entryY=0;entryDx=0;entryDy=0;fontFamily=Times New Roman;fontColor=#000766;fontSize=12;" edge="1" parent="1" source="l4M0wtJuBkXQJmv7v71e-19" target="l4M0wtJuBkXQJmv7v71e-10">
          <mxGeometry width="50" height="50" relative="1" as="geometry">
            <mxPoint x="837.51" y="-2505" as="sourcePoint" />
            <mxPoint x="742.6" y="-2440.05" as="targetPoint" />
            <Array as="points">
              <mxPoint x="1053" y="-2375" />
              <mxPoint x="1052.6000000000001" y="-2360.05" />
              <mxPoint x="1052.6000000000001" y="-2320.05" />
            </Array>
          </mxGeometry>
        </mxCell>
        <mxCell id="l4M0wtJuBkXQJmv7v71e-23" value="True" style="text;html=1;align=center;verticalAlign=middle;whiteSpace=wrap;rounded=0;fontFamily=Times New Roman;fontColor=#000766;fontSize=12;" vertex="1" parent="1">
          <mxGeometry x="1040.0000000000002" y="-2362.5" width="60" height="30" as="geometry" />
        </mxCell>
        <mxCell id="l4M0wtJuBkXQJmv7v71e-28" value="Display resorcues and profit" style="shape=parallelogram;perimeter=parallelogramPerimeter;whiteSpace=wrap;html=1;fixedSize=1;sketch=1;curveFitting=1;jiggle=2;fontFamily=Times New Roman;fontColor=#000766;fontSize=12;" vertex="1" parent="1">
          <mxGeometry x="557.5" y="-2370" width="120" height="60" as="geometry" />
        </mxCell>
        <mxCell id="l4M0wtJuBkXQJmv7v71e-30" value="True" style="text;html=1;align=center;verticalAlign=middle;whiteSpace=wrap;rounded=0;fontFamily=Times New Roman;fontColor=#000766;fontSize=12;" vertex="1" parent="1">
          <mxGeometry x="565" y="-2420" width="60" height="30" as="geometry" />
        </mxCell>
        <mxCell id="l4M0wtJuBkXQJmv7v71e-32" value="" style="endArrow=classic;html=1;rounded=0;exitX=1;exitY=0.5;exitDx=0;exitDy=0;entryX=1;entryY=0.75;entryDx=0;entryDy=0;fontFamily=Times New Roman;fontColor=#000766;fontSize=12;" edge="1" parent="1" source="l4M0wtJuBkXQJmv7v71e-28" target="l4M0wtJuBkXQJmv7v71e-12">
          <mxGeometry width="50" height="50" relative="1" as="geometry">
            <mxPoint x="331.25" y="-2510" as="sourcePoint" />
            <mxPoint x="381.25" y="-2560" as="targetPoint" />
            <Array as="points">
              <mxPoint x="701.25" y="-2340" />
              <mxPoint x="701.25" y="-2430" />
              <mxPoint x="701.25" y="-2520" />
              <mxPoint x="701.25" y="-2708" />
            </Array>
          </mxGeometry>
        </mxCell>
        <mxCell id="l4M0wtJuBkXQJmv7v71e-33" value="False" style="text;html=1;align=center;verticalAlign=middle;whiteSpace=wrap;rounded=0;fontFamily=Times New Roman;fontColor=#000766;fontSize=12;" vertex="1" parent="1">
          <mxGeometry x="726.25" y="-2720" width="60" height="30" as="geometry" />
        </mxCell>
        <mxCell id="l4M0wtJuBkXQJmv7v71e-34" value="&lt;span style=&quot;font-size: 12px; font-style: normal; font-variant-ligatures: normal; font-variant-caps: normal; font-weight: 400; letter-spacing: normal; orphans: 2; text-align: center; text-indent: 0px; text-transform: none; widows: 2; word-spacing: 0px; -webkit-text-stroke-width: 0px; white-space: normal; background-color: rgb(251, 251, 251); text-decoration-thickness: initial; text-decoration-style: initial; text-decoration-color: initial; float: none; display: inline !important;&quot;&gt;True&lt;/span&gt;" style="text;whiteSpace=wrap;html=1;fontFamily=Times New Roman;fontColor=#000766;fontSize=12;" vertex="1" parent="1">
          <mxGeometry x="515.25" y="-2800" width="60" height="40" as="geometry" />
        </mxCell>
        <mxCell id="l4M0wtJuBkXQJmv7v71e-35" value="&lt;span style=&quot;font-size: 12px; font-style: normal; font-variant-ligatures: normal; font-variant-caps: normal; font-weight: 400; letter-spacing: normal; orphans: 2; text-align: center; text-indent: 0px; text-transform: none; widows: 2; word-spacing: 0px; -webkit-text-stroke-width: 0px; white-space: normal; background-color: rgb(251, 251, 251); text-decoration-thickness: initial; text-decoration-style: initial; text-decoration-color: initial; float: none; display: inline !important;&quot;&gt;False&lt;/span&gt;" style="text;whiteSpace=wrap;html=1;fontFamily=Times New Roman;fontColor=#000766;fontSize=12;" vertex="1" parent="1">
          <mxGeometry x="565" y="-2880" width="60" height="40" as="geometry" />
        </mxCell>
        <mxCell id="l4M0wtJuBkXQJmv7v71e-41" value="" style="edgeStyle=orthogonalEdgeStyle;rounded=0;orthogonalLoop=1;jettySize=auto;html=1;fontFamily=Times New Roman;fontColor=#000766;fontSize=12;" edge="1" parent="1" source="l4M0wtJuBkXQJmv7v71e-38" target="l4M0wtJuBkXQJmv7v71e-40">
          <mxGeometry relative="1" as="geometry" />
        </mxCell>
        <mxCell id="l4M0wtJuBkXQJmv7v71e-38" value="Ask the user for size of coffee" style="shape=parallelogram;perimeter=parallelogramPerimeter;whiteSpace=wrap;html=1;fixedSize=1;fontFamily=Times New Roman;hachureGap=4;sketch=1;curveFitting=1;jiggle=2;fontColor=#000766;fontSize=12;" vertex="1" parent="1">
          <mxGeometry x="260" y="-2625" width="120" height="60" as="geometry" />
        </mxCell>
        <mxCell id="l4M0wtJuBkXQJmv7v71e-42" style="edgeStyle=orthogonalEdgeStyle;rounded=0;orthogonalLoop=1;jettySize=auto;html=1;entryX=0;entryY=0.5;entryDx=0;entryDy=0;fontFamily=Times New Roman;fontColor=#000766;fontSize=12;" edge="1" parent="1" source="l4M0wtJuBkXQJmv7v71e-40" target="l4M0wtJuBkXQJmv7v71e-38">
          <mxGeometry relative="1" as="geometry">
            <Array as="points">
              <mxPoint x="220" y="-2480" />
              <mxPoint x="220" y="-2595" />
            </Array>
          </mxGeometry>
        </mxCell>
        <mxCell id="l4M0wtJuBkXQJmv7v71e-46" value="" style="edgeStyle=orthogonalEdgeStyle;rounded=0;orthogonalLoop=1;jettySize=auto;html=1;fontFamily=Times New Roman;fontColor=#000766;fontSize=12;" edge="1" parent="1" source="l4M0wtJuBkXQJmv7v71e-40" target="l4M0wtJuBkXQJmv7v71e-45">
          <mxGeometry relative="1" as="geometry" />
        </mxCell>
        <mxCell id="l4M0wtJuBkXQJmv7v71e-40" value="If the size inside of the menu" style="rhombus;whiteSpace=wrap;html=1;fontFamily=Times New Roman;hachureGap=4;sketch=1;curveFitting=1;jiggle=2;fontColor=#000766;fontSize=12;" vertex="1" parent="1">
          <mxGeometry x="275" y="-2520" width="90" height="80" as="geometry" />
        </mxCell>
        <mxCell id="l4M0wtJuBkXQJmv7v71e-43" value="True" style="text;html=1;align=center;verticalAlign=middle;whiteSpace=wrap;rounded=0;fontFamily=Times New Roman;fontColor=#000766;fontSize=12;" vertex="1" parent="1">
          <mxGeometry x="392.5" y="-2625" width="60" height="30" as="geometry" />
        </mxCell>
        <mxCell id="l4M0wtJuBkXQJmv7v71e-44" value="False" style="text;html=1;align=center;verticalAlign=middle;whiteSpace=wrap;rounded=0;fontFamily=Times New Roman;fontColor=#000766;fontSize=12;" vertex="1" parent="1">
          <mxGeometry x="220" y="-2510" width="60" height="30" as="geometry" />
        </mxCell>
        <mxCell id="l4M0wtJuBkXQJmv7v71e-47" style="edgeStyle=orthogonalEdgeStyle;rounded=0;orthogonalLoop=1;jettySize=auto;html=1;entryX=0;entryY=0.5;entryDx=0;entryDy=0;fontFamily=Times New Roman;fontColor=#000766;fontSize=12;" edge="1" parent="1" source="l4M0wtJuBkXQJmv7v71e-45" target="l4M0wtJuBkXQJmv7v71e-12">
          <mxGeometry relative="1" as="geometry">
            <Array as="points">
              <mxPoint x="190" y="-2348" />
              <mxPoint x="190" y="-2720" />
            </Array>
          </mxGeometry>
        </mxCell>
        <mxCell id="l4M0wtJuBkXQJmv7v71e-51" value="" style="edgeStyle=orthogonalEdgeStyle;rounded=0;orthogonalLoop=1;jettySize=auto;html=1;fontFamily=Times New Roman;fontColor=#000766;fontSize=12;" edge="1" parent="1" source="l4M0wtJuBkXQJmv7v71e-45" target="l4M0wtJuBkXQJmv7v71e-50">
          <mxGeometry relative="1" as="geometry" />
        </mxCell>
        <mxCell id="l4M0wtJuBkXQJmv7v71e-45" value="If there are sufficient resources to make coffee" style="rhombus;whiteSpace=wrap;html=1;fontFamily=Times New Roman;hachureGap=4;sketch=1;curveFitting=1;jiggle=2;fontColor=#000766;fontSize=12;" vertex="1" parent="1">
          <mxGeometry x="265" y="-2395" width="110" height="95" as="geometry" />
        </mxCell>
        <mxCell id="l4M0wtJuBkXQJmv7v71e-48" value="False" style="text;html=1;align=center;verticalAlign=middle;whiteSpace=wrap;rounded=0;fontFamily=Times New Roman;fontColor=#000766;fontSize=12;" vertex="1" parent="1">
          <mxGeometry x="200" y="-2380" width="60" height="30" as="geometry" />
        </mxCell>
        <mxCell id="l4M0wtJuBkXQJmv7v71e-49" value="True" style="text;html=1;align=center;verticalAlign=middle;whiteSpace=wrap;rounded=0;fontFamily=Times New Roman;fontColor=#000766;fontSize=12;" vertex="1" parent="1">
          <mxGeometry x="320" y="-2440" width="60" height="30" as="geometry" />
        </mxCell>
        <mxCell id="l4M0wtJuBkXQJmv7v71e-53" value="" style="edgeStyle=orthogonalEdgeStyle;rounded=0;orthogonalLoop=1;jettySize=auto;html=1;fontFamily=Times New Roman;fontColor=#000766;fontSize=12;" edge="1" parent="1" source="l4M0wtJuBkXQJmv7v71e-50" target="l4M0wtJuBkXQJmv7v71e-52">
          <mxGeometry relative="1" as="geometry" />
        </mxCell>
        <mxCell id="l4M0wtJuBkXQJmv7v71e-50" value="Ask the count of coins" style="shape=parallelogram;perimeter=parallelogramPerimeter;whiteSpace=wrap;html=1;fixedSize=1;fontFamily=Times New Roman;hachureGap=4;sketch=1;curveFitting=1;jiggle=2;fontColor=#000766;fontSize=12;" vertex="1" parent="1">
          <mxGeometry x="392.5" y="-2290" width="120" height="60" as="geometry" />
        </mxCell>
        <mxCell id="l4M0wtJuBkXQJmv7v71e-55" value="" style="edgeStyle=orthogonalEdgeStyle;rounded=0;orthogonalLoop=1;jettySize=auto;html=1;fontFamily=Times New Roman;fontColor=#000766;fontSize=12;" edge="1" parent="1" source="l4M0wtJuBkXQJmv7v71e-52" target="l4M0wtJuBkXQJmv7v71e-54">
          <mxGeometry relative="1" as="geometry" />
        </mxCell>
        <mxCell id="l4M0wtJuBkXQJmv7v71e-65" value="" style="edgeStyle=orthogonalEdgeStyle;rounded=0;orthogonalLoop=1;jettySize=auto;html=1;fontFamily=Times New Roman;fontColor=#000766;fontSize=12;" edge="1" parent="1" source="l4M0wtJuBkXQJmv7v71e-52" target="l4M0wtJuBkXQJmv7v71e-64">
          <mxGeometry relative="1" as="geometry" />
        </mxCell>
        <mxCell id="l4M0wtJuBkXQJmv7v71e-52" value="If received money grather than or equal the cost of coffee" style="rhombus;whiteSpace=wrap;html=1;fontFamily=Times New Roman;hachureGap=4;sketch=1;curveFitting=1;jiggle=2;fontColor=#000766;fontSize=12;" vertex="1" parent="1">
          <mxGeometry x="388.75" y="-2180" width="127.5" height="90" as="geometry" />
        </mxCell>
        <mxCell id="l4M0wtJuBkXQJmv7v71e-57" style="edgeStyle=orthogonalEdgeStyle;rounded=0;orthogonalLoop=1;jettySize=auto;html=1;entryX=0;entryY=0.25;entryDx=0;entryDy=0;fontFamily=Times New Roman;fontColor=#000766;fontSize=12;" edge="1" parent="1" source="l4M0wtJuBkXQJmv7v71e-54" target="l4M0wtJuBkXQJmv7v71e-12">
          <mxGeometry relative="1" as="geometry">
            <Array as="points">
              <mxPoint x="160" y="-2135" />
              <mxPoint x="160" y="-2732" />
            </Array>
          </mxGeometry>
        </mxCell>
        <mxCell id="l4M0wtJuBkXQJmv7v71e-54" value="Refund money" style="shape=parallelogram;perimeter=parallelogramPerimeter;whiteSpace=wrap;html=1;fixedSize=1;fontFamily=Times New Roman;hachureGap=4;sketch=1;curveFitting=1;jiggle=2;fontColor=#000766;fontSize=12;" vertex="1" parent="1">
          <mxGeometry x="185" y="-2165" width="120" height="60" as="geometry" />
        </mxCell>
        <mxCell id="l4M0wtJuBkXQJmv7v71e-56" value="False" style="text;html=1;align=center;verticalAlign=middle;whiteSpace=wrap;rounded=0;fontFamily=Times New Roman;fontColor=#000766;fontSize=12;" vertex="1" parent="1">
          <mxGeometry x="320" y="-2165" width="60" height="30" as="geometry" />
        </mxCell>
        <mxCell id="l4M0wtJuBkXQJmv7v71e-60" value="True" style="text;html=1;align=center;verticalAlign=middle;whiteSpace=wrap;rounded=0;fontFamily=Times New Roman;fontColor=#000766;fontSize=12;" vertex="1" parent="1">
          <mxGeometry x="380" y="-2380" width="60" height="30" as="geometry" />
        </mxCell>
        <mxCell id="l4M0wtJuBkXQJmv7v71e-61" value="True" style="text;html=1;align=center;verticalAlign=middle;whiteSpace=wrap;rounded=0;fontFamily=Times New Roman;fontColor=#000766;fontSize=12;" vertex="1" parent="1">
          <mxGeometry x="515.25" y="-2170" width="60" height="30" as="geometry" />
        </mxCell>
        <mxCell id="l4M0wtJuBkXQJmv7v71e-67" value="" style="edgeStyle=orthogonalEdgeStyle;rounded=0;orthogonalLoop=1;jettySize=auto;html=1;fontFamily=Times New Roman;fontColor=#000766;fontSize=12;" edge="1" parent="1" source="l4M0wtJuBkXQJmv7v71e-64" target="l4M0wtJuBkXQJmv7v71e-66">
          <mxGeometry relative="1" as="geometry" />
        </mxCell>
        <mxCell id="l4M0wtJuBkXQJmv7v71e-70" value="" style="edgeStyle=orthogonalEdgeStyle;rounded=0;orthogonalLoop=1;jettySize=auto;html=1;fontFamily=Times New Roman;fontColor=#000766;fontSize=12;" edge="1" parent="1" source="l4M0wtJuBkXQJmv7v71e-64" target="l4M0wtJuBkXQJmv7v71e-69">
          <mxGeometry relative="1" as="geometry">
            <Array as="points">
              <mxPoint x="640" y="-2210" />
            </Array>
          </mxGeometry>
        </mxCell>
        <mxCell id="l4M0wtJuBkXQJmv7v71e-64" value="If the change equal &#39;0&#39;" style="rhombus;whiteSpace=wrap;html=1;fontFamily=Times New Roman;hachureGap=4;sketch=1;curveFitting=1;jiggle=2;fontColor=#000766;fontSize=12;" vertex="1" parent="1">
          <mxGeometry x="600" y="-2175" width="80" height="80" as="geometry" />
        </mxCell>
        <mxCell id="l4M0wtJuBkXQJmv7v71e-71" style="edgeStyle=orthogonalEdgeStyle;rounded=0;orthogonalLoop=1;jettySize=auto;html=1;entryX=0.5;entryY=1;entryDx=0;entryDy=0;fontFamily=Times New Roman;fontColor=#000766;fontSize=12;" edge="1" parent="1" source="l4M0wtJuBkXQJmv7v71e-66" target="l4M0wtJuBkXQJmv7v71e-69">
          <mxGeometry relative="1" as="geometry" />
        </mxCell>
        <mxCell id="l4M0wtJuBkXQJmv7v71e-66" value="Give change" style="whiteSpace=wrap;html=1;fontFamily=Times New Roman;hachureGap=4;sketch=1;curveFitting=1;jiggle=2;fontColor=#000766;fontSize=12;" vertex="1" parent="1">
          <mxGeometry x="580" y="-2050" width="120" height="25" as="geometry" />
        </mxCell>
        <mxCell id="l4M0wtJuBkXQJmv7v71e-68" value="True" style="text;html=1;align=center;verticalAlign=middle;whiteSpace=wrap;rounded=0;fontFamily=Times New Roman;fontColor=#000766;fontSize=12;" vertex="1" parent="1">
          <mxGeometry x="578.75" y="-2095" width="60" height="30" as="geometry" />
        </mxCell>
        <mxCell id="l4M0wtJuBkXQJmv7v71e-73" value="" style="edgeStyle=orthogonalEdgeStyle;rounded=0;orthogonalLoop=1;jettySize=auto;html=1;fontFamily=Times New Roman;fontColor=#000766;fontSize=12;exitX=1;exitY=0.5;exitDx=0;exitDy=0;" edge="1" parent="1" source="l4M0wtJuBkXQJmv7v71e-69" target="l4M0wtJuBkXQJmv7v71e-72">
          <mxGeometry relative="1" as="geometry">
            <Array as="points">
              <mxPoint x="850" y="-2204" />
              <mxPoint x="850" y="-2204" />
            </Array>
          </mxGeometry>
        </mxCell>
        <mxCell id="l4M0wtJuBkXQJmv7v71e-69" value="Add received money to profit" style="whiteSpace=wrap;html=1;fontFamily=Times New Roman;hachureGap=4;sketch=1;curveFitting=1;jiggle=2;fontColor=#000766;fontSize=12;" vertex="1" parent="1">
          <mxGeometry x="771.34" y="-2227.5" width="70" height="47.5" as="geometry" />
        </mxCell>
        <mxCell id="l4M0wtJuBkXQJmv7v71e-79" value="" style="edgeStyle=orthogonalEdgeStyle;rounded=0;orthogonalLoop=1;jettySize=auto;html=1;fontFamily=Times New Roman;fontColor=#000766;fontSize=12;" edge="1" parent="1" source="l4M0wtJuBkXQJmv7v71e-72" target="l4M0wtJuBkXQJmv7v71e-78">
          <mxGeometry relative="1" as="geometry" />
        </mxCell>
        <mxCell id="l4M0wtJuBkXQJmv7v71e-72" value="Make coffee" style="whiteSpace=wrap;html=1;fontFamily=Times New Roman;hachureGap=4;sketch=1;curveFitting=1;jiggle=2;fontColor=#000766;fontSize=12;" vertex="1" parent="1">
          <mxGeometry x="901.3400000000001" y="-2220.25" width="120" height="33" as="geometry" />
        </mxCell>
        <mxCell id="l4M0wtJuBkXQJmv7v71e-81" value="" style="edgeStyle=orthogonalEdgeStyle;rounded=0;orthogonalLoop=1;jettySize=auto;html=1;fontFamily=Times New Roman;fontColor=#000766;fontSize=12;" edge="1" parent="1" source="l4M0wtJuBkXQJmv7v71e-78" target="l4M0wtJuBkXQJmv7v71e-80">
          <mxGeometry relative="1" as="geometry" />
        </mxCell>
        <mxCell id="l4M0wtJuBkXQJmv7v71e-78" value="Ask to costumer if he/she would like to order more coffee" style="shape=parallelogram;perimeter=parallelogramPerimeter;whiteSpace=wrap;html=1;fixedSize=1;fontFamily=Times New Roman;hachureGap=4;sketch=1;curveFitting=1;jiggle=2;fontColor=#000766;fontSize=12;" vertex="1" parent="1">
          <mxGeometry x="901.3400000000001" y="-2133.5" width="120" height="60" as="geometry" />
        </mxCell>
        <mxCell id="l4M0wtJuBkXQJmv7v71e-85" style="edgeStyle=orthogonalEdgeStyle;rounded=0;orthogonalLoop=1;jettySize=auto;html=1;entryX=0;entryY=0.5;entryDx=0;entryDy=0;exitX=0.5;exitY=1;exitDx=0;exitDy=0;fontFamily=Times New Roman;fontColor=#000766;fontSize=12;" edge="1" parent="1" source="l4M0wtJuBkXQJmv7v71e-80" target="l4M0wtJuBkXQJmv7v71e-10">
          <mxGeometry relative="1" as="geometry">
            <mxPoint x="952.6000000000001" y="-2086.5" as="sourcePoint" />
          </mxGeometry>
        </mxCell>
        <mxCell id="l4M0wtJuBkXQJmv7v71e-80" value="If she/he wants to order more coffee" style="rhombus;whiteSpace=wrap;html=1;fontFamily=Times New Roman;hachureGap=4;sketch=1;curveFitting=1;jiggle=2;fontColor=#000766;fontSize=12;" vertex="1" parent="1">
          <mxGeometry x="905.6700000000001" y="-2036.5" width="111.34" height="80" as="geometry" />
        </mxCell>
        <mxCell id="l4M0wtJuBkXQJmv7v71e-82" value="" style="endArrow=classic;html=1;rounded=0;exitX=0;exitY=0.5;exitDx=0;exitDy=0;entryX=0;entryY=0;entryDx=0;entryDy=0;fontFamily=Times New Roman;fontColor=#000766;fontSize=12;" edge="1" parent="1" source="l4M0wtJuBkXQJmv7v71e-80" target="l4M0wtJuBkXQJmv7v71e-12">
          <mxGeometry width="50" height="50" relative="1" as="geometry">
            <mxPoint x="1050" y="-2333.5" as="sourcePoint" />
            <mxPoint x="448.8619402985073" y="-2826.3358208955224" as="targetPoint" />
            <Array as="points">
              <mxPoint x="140" y="-2003.5" />
              <mxPoint x="140" y="-2743" />
            </Array>
          </mxGeometry>
        </mxCell>
        <mxCell id="l4M0wtJuBkXQJmv7v71e-83" value="True" style="text;html=1;align=center;verticalAlign=middle;whiteSpace=wrap;rounded=0;fontFamily=Times New Roman;fontColor=#000766;fontSize=12;" vertex="1" parent="1">
          <mxGeometry x="841.3399999999999" y="-2023.5" width="60" height="30" as="geometry" />
        </mxCell>
        <mxCell id="l4M0wtJuBkXQJmv7v71e-86" value="False" style="text;html=1;align=center;verticalAlign=middle;whiteSpace=wrap;rounded=0;fontFamily=Times New Roman;fontColor=#000766;fontSize=12;" vertex="1" parent="1">
          <mxGeometry x="896.9299999999998" y="-2063.5" width="60" height="30" as="geometry" />
        </mxCell>
        <mxCell id="l4M0wtJuBkXQJmv7v71e-87" value="False" style="text;html=1;align=center;verticalAlign=middle;whiteSpace=wrap;rounded=0;fontFamily=Times New Roman;fontColor=#000766;fontSize=12;" vertex="1" parent="1">
          <mxGeometry x="666.25" y="-2240" width="60" height="30" as="geometry" />
        </mxCell>
      </root>
    </mxGraphModel>
  </diagram>
</mxfile>
